<svg id="visual" viewBox="0 0 900 600" width="900" height="600" xmlns="http://www.w3.org/2000/svg" xmlns:xlink="http://www.w3.org/1999/xlink" version="1.1"><rect x="0" y="0" width="900" height="600" fill="#FFFFFF"></rect><path d="M0 494L7.8 490.7C15.7 487.3 31.3 480.7 47.2 478.2C63 475.7 79 477.3 94.8 485.3C110.7 493.3 126.3 507.7 142 508.8C157.7 510 173.3 498 189.2 493.8C205 489.7 221 493.3 236.8 503C252.7 512.7 268.3 528.3 284.2 527.5C300 526.7 316 509.3 331.8 500.8C347.7 492.3 363.3 492.7 379 499.5C394.7 506.3 410.3 519.7 426.2 520.2C442 520.7 458 508.3 473.8 499.3C489.7 490.3 505.3 484.7 521 482.7C536.7 480.7 552.3 482.3 568.2 488.8C584 495.3 600 506.7 615.8 516.3C631.7 526 647.3 534 663.2 526.7C679 519.3 695 496.7 710.8 490.7C726.7 484.7 742.3 495.3 758 498.7C773.7 502 789.3 498 805.2 496.8C821 495.7 837 497.3 852.8 498.7C868.7 500 884.3 501 892.2 501.5L900 502L900 601L892.2 601C884.3 601 868.7 601 852.8 601C837 601 821 601 805.2 601C789.3 601 773.7 601 758 601C742.3 601 726.7 601 710.8 601C695 601 679 601 663.2 601C647.3 601 631.7 601 615.8 601C600 601 584 601 568.2 601C552.3 601 536.7 601 521 601C505.3 601 489.7 601 473.8 601C458 601 442 601 426.2 601C410.3 601 394.7 601 379 601C363.3 601 347.7 601 331.8 601C316 601 300 601 284.2 601C268.3 601 252.7 601 236.8 601C221 601 205 601 189.2 601C173.3 601 157.7 601 142 601C126.3 601 110.7 601 94.8 601C79 601 63 601 47.2 601C31.3 601 15.7 601 7.8 601L0 601Z" fill="#6600FF" stroke-linecap="round" stroke-linejoin="miter"></path></svg>