<svg id="visual" viewBox="0 0 1098 619" width="1098" height="619" xmlns="http://www.w3.org/2000/svg" xmlns:xlink="http://www.w3.org/1999/xlink" version="1.1"><rect x="0" y="0" width="1098" height="619" fill="#F5f5f5"></rect><defs><linearGradient id="grad1_0" x1="43.6%" y1="0%" x2="100%" y2="100%"><stop offset="14.523424878836835%" stop-color="#f5f5f5" stop-opacity="1"></stop><stop offset="85.47657512116317%" stop-color="#f5f5f5" stop-opacity="1"></stop></linearGradient></defs><defs><linearGradient id="grad2_0" x1="0%" y1="0%" x2="56.4%" y2="100%"><stop offset="14.523424878836835%" stop-color="#f5f5f5" stop-opacity="1"></stop><stop offset="85.47657512116317%" stop-color="#f5f5f5" stop-opacity="1"></stop></linearGradient></defs><g transform="translate(1098, 0)"><path d="M0 278.5C-36.7 250.9 -73.4 223.3 -117.5 203.5C-161.6 183.8 -213.2 171.9 -241.2 139.3C-269.3 106.7 -273.9 53.3 -278.5 0L0 0Z" fill="#3a3272"></path></g><g transform="translate(0, 619)"><path d="M0 -278.5C27.1 -234.3 54.2 -190 99.5 -172.3C144.8 -154.7 208.4 -163.6 241.2 -139.3C274.1 -115 276.3 -57.5 278.5 0L0 0Z" fill="#3a3272"></path></g></svg>