<svg id="visual" viewBox="0 0 1098 619" width="1098" height="619" xmlns="http://www.w3.org/2000/svg" xmlns:xlink="http://www.w3.org/1999/xlink" version="1.1"><rect x="0" y="0" width="1098" height="619" fill="#F5f5f5"></rect><defs><linearGradient id="grad1_0" x1="43.6%" y1="100%" x2="100%" y2="0%"><stop offset="14.523424878836835%" stop-color="#f5f5f5" stop-opacity="1"></stop><stop offset="85.47657512116317%" stop-color="#f5f5f5" stop-opacity="1"></stop></linearGradient></defs><defs><linearGradient id="grad2_0" x1="0%" y1="100%" x2="56.4%" y2="0%"><stop offset="14.523424878836835%" stop-color="#f5f5f5" stop-opacity="1"></stop><stop offset="85.47657512116317%" stop-color="#f5f5f5" stop-opacity="1"></stop></linearGradient></defs><g transform="translate(1098, 619)"><path d="M-278.5 0C-250.9 -36.7 -223.3 -73.4 -203.5 -117.5C-183.8 -161.6 -171.9 -213.2 -139.3 -241.2C-106.7 -269.3 -53.3 -273.9 0 -278.5L0 0Z" fill="#3a3272"></path></g><g transform="translate(0, 0)"><path d="M278.5 0C234.3 27.1 190 54.2 172.3 99.5C154.7 144.8 163.6 208.4 139.3 241.2C115 274.1 57.5 276.3 0 278.5L0 0Z" fill="#3a3272"></path></g></svg>