<svg id="visual" viewBox="0 0 1098 619" width="1098" height="619" xmlns="http://www.w3.org/2000/svg" xmlns:xlink="http://www.w3.org/1999/xlink" version="1.1"><g stroke-width="1" stroke-linejoin="bevel"><path d="M560 343.4L548 222.6L431.8 241.6Z" fill="#524986" stroke="#524986"></path><path d="M431.8 241.6L402.8 346.4L560 343.4Z" fill="#524986" stroke="#524986"></path><path d="M666.3 135.8L571 128.8L548 222.6Z" fill="#36306c" stroke="#36306c"></path><path d="M548 222.6L426.8 112.8L431.8 241.6Z" fill="#2b295b" stroke="#2b295b"></path><path d="M571 128.8L426.8 112.8L548 222.6Z" fill="#36306c" stroke="#36306c"></path><path d="M255.5 235.6L291.5 366.4L402.8 346.4Z" fill="#423a79" stroke="#423a79"></path><path d="M560 343.4L703.3 231.6L548 222.6Z" fill="#2f2b61" stroke="#2f2b61"></path><path d="M665.3 493.2L691.3 384.4L560 343.4Z" fill="#282755" stroke="#282755"></path><path d="M560 343.4L691.3 384.4L703.3 231.6Z" fill="#322e66" stroke="#322e66"></path><path d="M255.5 235.6L402.8 346.4L431.8 241.6Z" fill="#423a79" stroke="#423a79"></path><path d="M402.8 346.4L529 517.2L560 343.4Z" fill="#3a3272" stroke="#3a3272"></path><path d="M703.3 231.6L666.3 135.8L548 222.6Z" fill="#423a79" stroke="#423a79"></path><path d="M571 128.8L561 0L426.8 112.8Z" fill="#4a417f" stroke="#4a417f"></path><path d="M398.8 519.2L529 517.2L402.8 346.4Z" fill="#2f2b61" stroke="#2f2b61"></path><path d="M426.8 112.8L255.5 235.6L431.8 241.6Z" fill="#625994" stroke="#625994"></path><path d="M285.5 472.2L398.8 519.2L402.8 346.4Z" fill="#3a3272" stroke="#3a3272"></path><path d="M529 517.2L665.3 493.2L560 343.4Z" fill="#625994" stroke="#625994"></path><path d="M132.3 368.4L285.5 472.2L291.5 366.4Z" fill="#625994" stroke="#625994"></path><path d="M291.5 366.4L285.5 472.2L402.8 346.4Z" fill="#282755" stroke="#282755"></path><path d="M666.3 135.8L561 0L571 128.8Z" fill="#2b295b" stroke="#2b295b"></path><path d="M426.8 112.8L250.5 116.8L255.5 235.6Z" fill="#4a417f" stroke="#4a417f"></path><path d="M561 0L416.8 0L426.8 112.8Z" fill="#3a3272" stroke="#3a3272"></path><path d="M291.5 0L250.5 116.8L426.8 112.8Z" fill="#524986" stroke="#524986"></path><path d="M703.3 231.6L806.5 226.6L666.3 135.8Z" fill="#36306c" stroke="#36306c"></path><path d="M666.3 135.8L707.3 0L561 0Z" fill="#625994" stroke="#625994"></path><path d="M824.5 379.4L806.5 226.6L703.3 231.6Z" fill="#2f2b61" stroke="#2f2b61"></path><path d="M824.5 379.4L703.3 231.6L691.3 384.4Z" fill="#524986" stroke="#524986"></path><path d="M529 517.2L545 619L665.3 493.2Z" fill="#423a79" stroke="#423a79"></path><path d="M407.8 619L545 619L529 517.2Z" fill="#3a3272" stroke="#3a3272"></path><path d="M407.8 619L529 517.2L398.8 519.2Z" fill="#423a79" stroke="#423a79"></path><path d="M841.5 474.2L691.3 384.4L665.3 493.2Z" fill="#423a79" stroke="#423a79"></path><path d="M841.5 474.2L824.5 379.4L691.3 384.4Z" fill="#2f2b61" stroke="#2f2b61"></path><path d="M278.5 619L407.8 619L398.8 519.2Z" fill="#524986" stroke="#524986"></path><path d="M416.8 0L291.5 0L426.8 112.8Z" fill="#4a417f" stroke="#4a417f"></path><path d="M794.5 0L707.3 0L666.3 135.8Z" fill="#524986" stroke="#524986"></path><path d="M255.5 235.6L132.3 368.4L291.5 366.4Z" fill="#524986" stroke="#524986"></path><path d="M285.5 472.2L278.5 619L398.8 519.2Z" fill="#36306c" stroke="#36306c"></path><path d="M114.3 228.6L132.3 368.4L255.5 235.6Z" fill="#524986" stroke="#524986"></path><path d="M114.3 228.6L255.5 235.6L250.5 116.8Z" fill="#3a3272" stroke="#3a3272"></path><path d="M545 619L690.3 619L665.3 493.2Z" fill="#2b295b" stroke="#2b295b"></path><path d="M943.8 248.6L844.5 121.8L806.5 226.6Z" fill="#3a3272" stroke="#3a3272"></path><path d="M806.5 226.6L844.5 121.8L666.3 135.8Z" fill="#2b295b" stroke="#2b295b"></path><path d="M110.3 115.8L114.3 228.6L250.5 116.8Z" fill="#625994" stroke="#625994"></path><path d="M819.5 619L841.5 474.2L665.3 493.2Z" fill="#2f2b61" stroke="#2f2b61"></path><path d="M824.5 379.4L943.8 248.6L806.5 226.6Z" fill="#4a417f" stroke="#4a417f"></path><path d="M141.3 619L278.5 619L285.5 472.2Z" fill="#322e66" stroke="#322e66"></path><path d="M844.5 121.8L794.5 0L666.3 135.8Z" fill="#3a3272" stroke="#3a3272"></path><path d="M126.3 0L110.3 115.8L250.5 116.8Z" fill="#625994" stroke="#625994"></path><path d="M0 491.2L114.3 499.2L132.3 368.4Z" fill="#625994" stroke="#625994"></path><path d="M132.3 368.4L114.3 499.2L285.5 472.2Z" fill="#524986" stroke="#524986"></path><path d="M0 352.4L132.3 368.4L114.3 228.6Z" fill="#3a3272" stroke="#3a3272"></path><path d="M967.8 364.4L943.8 248.6L824.5 379.4Z" fill="#4a417f" stroke="#4a417f"></path><path d="M844.5 121.8L945.8 0L794.5 0Z" fill="#4a417f" stroke="#4a417f"></path><path d="M690.3 619L819.5 619L665.3 493.2Z" fill="#36306c" stroke="#36306c"></path><path d="M841.5 474.2L967.8 364.4L824.5 379.4Z" fill="#36306c" stroke="#36306c"></path><path d="M291.5 0L126.3 0L250.5 116.8Z" fill="#423a79" stroke="#423a79"></path><path d="M955.8 522.2L967.8 364.4L841.5 474.2Z" fill="#625994" stroke="#625994"></path><path d="M114.3 499.2L141.3 619L285.5 472.2Z" fill="#524986" stroke="#524986"></path><path d="M0 128.8L114.3 228.6L110.3 115.8Z" fill="#282755" stroke="#282755"></path><path d="M0 128.8L0 229.6L114.3 228.6Z" fill="#625994" stroke="#625994"></path><path d="M114.3 499.2L0 619L141.3 619Z" fill="#3a3272" stroke="#3a3272"></path><path d="M0 229.6L0 352.4L114.3 228.6Z" fill="#5a518d" stroke="#5a518d"></path><path d="M819.5 619L955.8 522.2L841.5 474.2Z" fill="#2f2b61" stroke="#2f2b61"></path><path d="M1098 149.8L987.8 113.8L943.8 248.6Z" fill="#3a3272" stroke="#3a3272"></path><path d="M943.8 248.6L987.8 113.8L844.5 121.8Z" fill="#625994" stroke="#625994"></path><path d="M1098 270.6L943.8 248.6L967.8 364.4Z" fill="#36306c" stroke="#36306c"></path><path d="M0 0L0 128.8L110.3 115.8Z" fill="#2b295b" stroke="#2b295b"></path><path d="M987.8 113.8L945.8 0L844.5 121.8Z" fill="#2b295b" stroke="#2b295b"></path><path d="M0 352.4L0 491.2L132.3 368.4Z" fill="#423a79" stroke="#423a79"></path><path d="M819.5 619L964.8 619L955.8 522.2Z" fill="#36306c" stroke="#36306c"></path><path d="M1098 345.4L1098 270.6L967.8 364.4Z" fill="#282755" stroke="#282755"></path><path d="M126.3 0L0 0L110.3 115.8Z" fill="#2b295b" stroke="#2b295b"></path><path d="M0 491.2L0 619L114.3 499.2Z" fill="#524986" stroke="#524986"></path><path d="M1098 345.4L967.8 364.4L1098 509.2Z" fill="#2f2b61" stroke="#2f2b61"></path><path d="M987.8 113.8L1098 0L945.8 0Z" fill="#4a417f" stroke="#4a417f"></path><path d="M1098 509.2L967.8 364.4L955.8 522.2Z" fill="#2f2b61" stroke="#2f2b61"></path><path d="M1098 270.6L1098 149.8L943.8 248.6Z" fill="#322e66" stroke="#322e66"></path><path d="M964.8 619L1098 509.2L955.8 522.2Z" fill="#5a518d" stroke="#5a518d"></path><path d="M1098 149.8L1098 0L987.8 113.8Z" fill="#322e66" stroke="#322e66"></path><path d="M964.8 619L1098 619L1098 509.2Z" fill="#4a417f" stroke="#4a417f"></path></g></svg>