<svg id="visual" viewBox="0 0 1098 619" width="1098" height="619" xmlns="http://www.w3.org/2000/svg" xmlns:xlink="http://www.w3.org/1999/xlink" version="1.1"><path d="M0 125L122 162L244 131L366 174L488 187L610 181L732 131L854 168L976 125L1098 193L1098 0L976 0L854 0L732 0L610 0L488 0L366 0L244 0L122 0L0 0Z" fill="#3a3272"></path><path d="M0 311L122 329L244 317L366 348L488 379L610 348L732 348L854 360L976 311L1098 372L1098 191L976 123L854 166L732 129L610 179L488 185L366 172L244 129L122 160L0 123Z" fill="#695e92"></path><path d="M0 410L122 397L244 410L366 453L488 459L610 447L732 453L854 434L976 410L1098 478L1098 370L976 309L854 358L732 346L610 346L488 377L366 346L244 315L122 327L0 309Z" fill="#978db2"></path><path d="M0 546L122 527L244 527L366 546L488 570L610 564L732 546L854 527L976 527L1098 564L1098 476L976 408L854 432L732 451L610 445L488 457L366 451L244 408L122 395L0 408Z" fill="#c5c0d3"></path><path d="M0 620L122 620L244 620L366 620L488 620L610 620L732 620L854 620L976 620L1098 620L1098 562L976 525L854 525L732 544L610 562L488 568L366 544L244 525L122 525L0 544Z" fill="#f5f5f5"></path></svg>