<svg id="visual" viewBox="0 0 900 600" width="900" height="600" xmlns="http://www.w3.org/2000/svg" xmlns:xlink="http://www.w3.org/1999/xlink" version="1.1"><g transform="translate(467.9204763362711 277.367518713461)"><path d="M97.7 -155.4C135.1 -147.7 179.7 -138.6 205.8 -112.5C231.9 -86.3 239.4 -43.2 227.5 -6.9C215.5 29.3 183.9 58.7 159.8 88.1C135.6 117.6 118.8 147.1 93.4 169.4C68 191.8 34 206.9 -2.2 210.8C-38.5 214.7 -77 207.4 -120.3 195.4C-163.6 183.4 -211.7 166.7 -240.5 133.3C-269.2 100 -278.6 50 -257 12.5C-235.3 -25 -182.6 -50 -147.1 -71.7C-111.6 -93.3 -93.3 -111.6 -71.7 -128.4C-50 -145.3 -25 -160.6 2.6 -165.1C30.2 -169.6 60.3 -163.2 97.7 -155.4" fill="#888277"></path></g></svg>